<?xml version="1.0" encoding="utf-8"?>
<svg version="1.1" xmlns:xlink="http://www.w3.org/1999/xlink" width="18px" height="16px" xmlns="http://www.w3.org/2000/svg">
  <g transform="matrix(1 0 0 1 -905 -781 )">
    <path d="M 17.606 12.418  L 17.618 12.418  L 10.805 1.603  C 10.4998279883342 0.863821719851646  9.793907816518 0.368507566146334  8.99499999999999 0.333  C 8.20581114783312 0.361157618601168  7.5041653715925 0.843344188162086  7.19499999999999 1.57  L 0.394999999999992 12.418  C -0.0752628747667963 13.0550922819078  -0.128104390148766 13.908776319301  0.259999999999992 14.599  C 0.699553133229102 15.2565009846005  1.46201581670373 15.6227895903301  2.24999999999999 15.555  L 15.74 15.555  C 16.5293610345169 15.6304141796346  17.2955384444144 15.2623410118648  17.73 14.599  C 18.0916679684388 13.9042515121735  18.044082184275 13.0672789697447  17.606 12.418  Z M 9.01099999999999 13.655  L 8.99499999999999 13.654  C 8.47773725695106 13.6393851766958  8.06600020016638 13.2158505244918  8.06600020016638 12.6983813578676  C 8.06600020016638 12.1703971370294  8.49401597932814 11.7423813578676  9.02200020016638 11.7423813578676  C 9.54998442100461 11.7423813578676  9.97800020016638 12.1703971370294  9.97800020016638 12.6983813578676  C 9.97197340126386 13.2287586351014  9.54079291254396 13.6550342785515  9.01099999999999 13.655  Z M 9.80499999999999 9.877  L 9.79499999999999 9.877  C 9.79833075415093 9.90681923109128  9.79999999999999 9.9368006709818  9.79999999999999 9.9668053450525  C 9.79999999999999 10.4136037076656  9.4377983626131 10.7758053450525  8.99099999999999 10.7758053450525  C 8.54420163738688 10.7758053450525  8.18199999999999 10.4136037076656  8.18199999999999 9.9668053450525  C 8.18199999999999 9.9368006709818  8.18366924584906 9.90681923109128  8.18699999999999 9.877  L 7.87099999999999 5.853  C 7.87099999999999 5.23223194119019  8.37423194119018 4.729  8.99499999999999 4.729  C 9.6157680588098 4.729  10.119 5.23223194119019  10.119 5.853  L 9.80499999999999 9.877  Z " fill-rule="nonzero" fill="#f55200" stroke="none" transform="matrix(1 0 0 1 905 781 )" />
  </g>
</svg>