<?xml version="1.0" encoding="utf-8"?>
<svg version="1.1" xmlns:xlink="http://www.w3.org/1999/xlink" width="18px" height="32px" xmlns="http://www.w3.org/2000/svg">
  <g transform="matrix(1 0 0 1 -1179 -600 )">
    <path d="M 17.6907216494845 15.2625250501002  C 17.8969072164948 15.4762859051436  18 15.7221108884436  18 16  C 18 16.2778891115564  17.8969072164948 16.5237140948564  17.6907216494845 16.7374749498998  L 3.27835051546392 31.6793587174349  C 3.07216494845361 31.8931195724783  2.83505154639175 32  2.56701030927835 32  C 2.29896907216495 32  2.06185567010309 31.8931195724783  1.85567010309278 31.6793587174349  L 0.309278350515464 30.0761523046092  C 0.103092783505155 29.8623914495658  0 29.6165664662659  0 29.3386773547094  C 0 29.060788243153  0.103092783505155 28.814963259853  0.309278350515464 28.6012024048096  L 12.4639175257732 16  L 0.309278350515464 3.39879759519038  C 0.103092783505155 3.18503674014696  0 2.93921175684703  0 2.66132264529058  C 0 2.38343353373413  0.103092783505155 2.1376085504342  0.309278350515464 1.92384769539078  L 1.85567010309278 0.320641282565131  C 2.06185567010309 0.106880427521709  2.29896907216495 0  2.56701030927835 0  C 2.83505154639175 0  3.07216494845361 0.106880427521709  3.27835051546392 0.320641282565131  L 17.6907216494845 15.2625250501002  Z " fill-rule="nonzero" fill="#ffffff" stroke="none" transform="matrix(1 0 0 1 1179 600 )" />
  </g>
</svg>