<?xml version="1.0" encoding="utf-8"?>
<svg version="1.1" xmlns:xlink="http://www.w3.org/1999/xlink" width="124px" height="124px" xmlns="http://www.w3.org/2000/svg">
  <g transform="matrix(1 0 0 1 -716 -268 )">
    <path d="M 61.5803849693916 0.172799030608417  C 61.576747312899 0.172799030608417  61.5731096564352 0.172799353738938  61.569472 0.172799999999995  C 27.6384578000196 0.172799999999995  0.131935999999996 27.6793218000196  0.131935999999996 61.610336  C 0.131935999999996 95.5413501999804  27.6384578000196 123.047872  61.569472 123.047872  C 95.5004861999804 123.047872  123.007008 95.5413501999804  123.007008 61.610336  C 123.007008646261 61.6066983435648  123.007008969392 61.603060687101  123.007008969392 61.5994230306084  C 123.007008969392 27.6744353618182  95.5053726381817 0.172799030608417  61.5803849693916 0.172799030608417  Z M 54.781216 90.029152  L 27.629184 61.611328  L 33.84208 55.743648  L 50.2944 69.665376  C 50.2944 69.665376  85.615552 35.034656  91.3632 33.193504  L 95.619872 37.910464  C 95.39568 37.909472  73.074688 59.309888  54.782208 90.029152  Z " fill-rule="nonzero" fill="#36b7e9" stroke="none" transform="matrix(1 0 0 1 716 268 )" />
  </g>
</svg>