<?xml version="1.0" encoding="utf-8"?>
<svg version="1.1" xmlns:xlink="http://www.w3.org/1999/xlink" width="23px" height="20px" xmlns="http://www.w3.org/2000/svg">
  <g transform="matrix(1 0 0 1 -1867 -634 )">
    <path d="M 20.173 7.33500000000001  L 20.173 7.33  C 20.178 7.346  20.179 7.364  20.184 7.378  C 19.0552187733761 3.59286382554846  15.5743611262575 0.998564151985221  11.6245 0.998564151985221  C 7.67463887374249 0.998564151985221  4.19378122662391 3.59286382554846  3.065 7.378  C 3.06999999999999 7.36199999999999  3.071 7.34399999999999  3.07599999999999 7.33  C 1.86067635583377 7.60837076813355  0.999020728283369 8.68970336677518  0.999020728283369 9.9365  C 0.999020728283369 11.1832966332248  1.86067635583377 12.2646292318664  3.07599999999999 12.543  C 3.07599999999999 12.537  3.07599999999999 12.53  3.07599999999999 12.524  C 3.15968700535623 12.6961171174215  3.33428049474468 12.8053635767126  3.5256644464621 12.8053635767126  C 3.8018068213775 12.8053635767126  4.0256644464621 12.5815059516279  4.0256644464621 12.3053635767126  C 4.0256644464621 12.2781060663933  4.0234355370637 12.2508941978828  4.01899999999999 12.224  C 3.79503427539944 11.4806280646225  3.68123718129887 10.7084424842112  3.68123718129887 9.93206468951149  C 3.68123718129887 5.54416235210583  7.23833484389321 1.98706468951148  11.6262371812989 1.98706468951148  C 16.0141395187045 1.98706468951148  19.5712371812989 5.54416235210583  19.5712371812989 9.93206468951149  C 19.5712371812989 13.4588687617042  17.2462827059994 16.5635396584704  13.862 17.556  C 13.5863966324912 17.139074959857  13.1197833945458 16.8884863691086  12.62 16.889  L 10.632 16.889  C 9.80937186512703 16.889  9.1425 17.555871865127  9.1425 18.3785  C 9.1425 19.201128134873  9.80937186512703 19.868  10.632 19.868  L 12.617 19.868  C 13.3824901777506 19.8666263953496  14.0213325510095 19.2832225466854  14.092 18.521  C 17.0117257066136 17.6759372977865  19.3047687631132 15.4096188074411  20.184 12.5  C 20.179 12.516  20.178 12.534  20.173 12.548  C 21.3883236441662 12.2696292318664  22.2499792717166 11.1882966332248  22.2499792717166 9.9415  C 22.2499792717166 8.69470336677517  21.3883236441662 7.61337076813356  20.173 7.33500000000001  Z M 2.77800000000001 8.73999999999999  C 2.791 8.64400000000001  2.80500000000001 8.55  2.821 8.458  C 2.80500000000001 8.551  2.79000000000001 8.646  2.77800000000001 8.73999999999999  Z M 2.78700000000001 11.262  L 2.78700000000001 11.258  C 2.8 11.348  2.83 11.435  2.846 11.524  C 2.83 11.438  2.8 11.352  2.78700000000001 11.262  Z M 20.428 11.415  L 20.427 11.411  C 20.443 11.318  20.458 11.224  20.47 11.13  C 20.459 11.228  20.443 11.321  20.428 11.415  Z M 20.428 8.458  L 20.427 8.45399999999999  C 20.443 8.547  20.457 8.64100000000001  20.47 8.736  C 20.459 8.64400000000001  20.443 8.55  20.428 8.458  Z " fill-rule="nonzero" fill="#cccccc" stroke="none" transform="matrix(1 0 0 1 1867 634 )" />
  </g>
</svg>