<?xml version="1.0" encoding="utf-8"?>
<svg version="1.1" xmlns:xlink="http://www.w3.org/1999/xlink" width="16px" height="16px" xmlns="http://www.w3.org/2000/svg">
  <g transform="matrix(1 0 0 1 -338 -199 )">
    <path d="M 8.01100378646538 0  C 8.00733459244451 0  8.00366539885905 0  7.99999620832109 0  C 3.58172030376121 0  0 3.58172788711902  0 8.00000379167892  C 0 12.4182796962388  3.58172030376121 16  7.99999620832109 16  C 12.418272112881 16  15.9999924166422 12.4182796962388  15.9999924166422 8.00000379167892  C 15.9999974722135 7.99633460114098  16 7.99266540755547  16 7.98899621353463  C 16 3.57679543834351  12.4232045616565 0  8.01100378646538 0  Z M 11.559994521024 10.9600023887577  C 11.559994521024 11.1173809658331  11.4858974774762 11.2655750529286  11.359994615816 11.3600021991738  C 11.135994721983 11.5733354313957  10.7839948888168 11.5733354313957  10.5599949949838 11.3600021991738  L 7.99999620832109 8.80000341251103  L 5.43999742165834 11.3600021991738  C 5.33514026394546 11.4580902886095  5.19692303134068 11.5126604627557  5.05333926898306 11.5126604627557  C 4.74074624873543 11.5126604627557  4.48733953724431 11.2592537512646  4.48733953724431 10.946660731017  C 4.48733953724431 10.8030769686593  4.54190971139052 10.6648597360546  4.63999780082622 10.5600025783417  L 7.19999658748897 8.00000379167892  L 4.63999780082622 5.44000500501617  C 4.54190971139052 5.33514784730328  4.48733953724431 5.19693061469851  4.48733953724431 5.05334685234087  C 4.48733953724431 4.74075383209326  4.74074624873543 4.48734712060215  5.05333926898306 4.48734712060215  C 5.19692303134068 4.48734712060215  5.33514026394546 4.54191729474837  5.43999742165834 4.64000538418407  L 7.99999620832109 7.20000417084682  L 10.5599949949838 4.64000538418407  C 10.6648521526967 4.54191729474837  10.8030693853015 4.48734712060215  10.9466531476591 4.48734712060215  C 11.2592461679067 4.48734712060215  11.5126528793979 4.74075383209326  11.5126528793979 5.05334685234087  C 11.5126528793979 5.19693061469851  11.4580827052517 5.33514784730328  11.359994615816 5.44000500501617  L 8.79999582915321 8.00000379167892  L 11.359994615816 10.5600025783417  C 11.4858974774762 10.6544297245869  11.559994521024 10.8026238116824  11.559994521024 10.9600023887577  Z " fill-rule="nonzero" fill="#ffffff" stroke="none" transform="matrix(1 0 0 1 338 199 )" />
  </g>
</svg>