<?xml version="1.0" encoding="utf-8"?>
<svg version="1.1" xmlns:xlink="http://www.w3.org/1999/xlink" width="24px" height="17px" xmlns="http://www.w3.org/2000/svg">
  <g transform="matrix(1 0 0 1 -1868 -718 )">
    <path d="M 22.349 5.39299999999997  L 22.358 5.387  L 22.358 9.005  L 23.23 10.005  L 21.555 11.457  L 20.025 10.005  L 20.946 8.97999999999999  L 20.946 5.98699999999999  C 15.998 8.006  14.658 8.63299999999998  13.561 9.12299999999999  C 12.6317499238368 9.59625350867157  11.5389002003192 9.62636563142976  10.585 9.20499999999998  C 9.49700000000001 8.79899999999998  4.56200000000001 6.92899999999997  1.98500000000001 5.70999999999998  C 0.268000000000015 4.89699999999999  0.158000000000015 4.38199999999998  2.01400000000001 3.69199999999998  C 4.43700000000001 2.78099999999998  8.19600000000001 1.32299999999998  10.314 0.526999999999987  C 11.571 0.0269999999999868  12.235 -0.251000000000005  13.389 0.326999999999998  C 15.449 1.16800000000001  19.909 2.916  22.249 3.87199999999999  C 24.286 4.75199999999998  22.917 5.041  22.349 5.39299999999997  Z M 10.187 10.622  C 11.3452208960756 11.0915446352585  12.6407791039244 11.0915446352585  13.799 10.622  C 14.999 10.133  16.609 9.322  18.368 8.58000000000001  L 18.368 14.567  C 16.6591197916145 16.1376802496445  14.4138278923877 16.9946482334929  12.093 16.962  C 9.6583475566816 17.0314295889094  7.28784051071216 16.1756315221176  5.459 14.567  L 5.459 8.97900000000001  C 6.81700000000001 9.52600000000001  8.342 9.99700000000001  10.187 10.622  Z " fill-rule="nonzero" fill="#cccccc" stroke="none" transform="matrix(1 0 0 1 1868 718 )" />
  </g>
</svg>