<?xml version="1.0" encoding="utf-8"?>
<svg version="1.1" xmlns:xlink="http://www.w3.org/1999/xlink" width="16px" height="16px" xmlns="http://www.w3.org/2000/svg">
  <g transform="matrix(1 0 0 1 -364 -161 )">
    <path d="M 10.5729166666667 13.2395833333333  C 10.6354166666667 13.1770833333333  10.6666666666667 13.0972222222222  10.6666666666667 13  L 10.6666666666667 11.3333333333333  C 10.6666666666667 11.2361111111111  10.6354166666667 11.15625  10.5729166666667 11.09375  C 10.5104166666667 11.03125  10.4305555555556 11  10.3333333333333 11  L 9.33333333333333 11  L 9.33333333333333 5.66666666666667  C 9.33333333333333 5.56944444444444  9.30208333333333 5.48958333333333  9.23958333333333 5.42708333333333  C 9.17708333333333 5.36458333333333  9.09722222222222 5.33333333333333  9 5.33333333333333  L 5.66666666666667 5.33333333333333  C 5.56944444444445 5.33333333333333  5.48958333333333 5.36458333333333  5.42708333333333 5.42708333333333  C 5.36458333333333 5.48958333333333  5.33333333333333 5.56944444444444  5.33333333333333 5.66666666666667  L 5.33333333333333 7.33333333333333  C 5.33333333333333 7.43055555555556  5.36458333333333 7.51041666666667  5.42708333333333 7.57291666666667  C 5.48958333333333 7.63541666666667  5.56944444444445 7.66666666666667  5.66666666666667 7.66666666666667  L 6.66666666666667 7.66666666666667  L 6.66666666666667 11  L 5.66666666666667 11  C 5.56944444444445 11  5.48958333333333 11.03125  5.42708333333333 11.09375  C 5.36458333333333 11.15625  5.33333333333333 11.2361111111111  5.33333333333333 11.3333333333333  L 5.33333333333333 13  C 5.33333333333333 13.0972222222222  5.36458333333333 13.1770833333333  5.42708333333333 13.2395833333333  C 5.48958333333333 13.3020833333333  5.56944444444445 13.3333333333333  5.66666666666667 13.3333333333333  L 10.3333333333333 13.3333333333333  C 10.4305555555556 13.3333333333333  10.5104166666667 13.3020833333333  10.5729166666667 13.2395833333333  Z M 9.23958333333333 3.90625  C 9.30208333333333 3.84375  9.33333333333333 3.76388888888889  9.33333333333333 3.66666666666667  L 9.33333333333333 2  C 9.33333333333333 1.90277777777778  9.30208333333333 1.82291666666667  9.23958333333333 1.76041666666667  C 9.17708333333333 1.69791666666667  9.09722222222222 1.66666666666667  9 1.66666666666667  L 7 1.66666666666667  C 6.90277777777778 1.66666666666667  6.82291666666667 1.69791666666667  6.76041666666667 1.76041666666667  C 6.69791666666667 1.82291666666667  6.66666666666667 1.90277777777778  6.66666666666667 2  L 6.66666666666667 3.66666666666667  C 6.66666666666667 3.76388888888889  6.69791666666667 3.84375  6.76041666666667 3.90625  C 6.82291666666667 3.96875  6.90277777777778 4  7 4  L 9 4  C 9.09722222222222 4  9.17708333333333 3.96875  9.23958333333333 3.90625  Z M 14.9270833333333 3.984375  C 15.6423611111111 5.21006944444444  16 6.54861111111111  16 8  C 16 9.45138888888889  15.6423611111111 10.7899305555556  14.9270833333333 12.015625  C 14.2118055555556 13.2413194444444  13.2413194444444 14.2118055555556  12.015625 14.9270833333333  C 10.7899305555556 15.6423611111111  9.45138888888889 16  8 16  C 6.54861111111111 16  5.21006944444444 15.6423611111111  3.984375 14.9270833333333  C 2.75868055555556 14.2118055555556  1.78819444444444 13.2413194444444  1.07291666666667 12.015625  C 0.357638888888889 10.7899305555556  0 9.45138888888889  0 8  C 0 6.54861111111111  0.357638888888889 5.21006944444444  1.07291666666667 3.984375  C 1.78819444444444 2.75868055555556  2.75868055555556 1.78819444444444  3.984375 1.07291666666667  C 5.21006944444444 0.357638888888888  6.54861111111111 0  8 0  C 9.45138888888889 0  10.7899305555556 0.357638888888888  12.015625 1.07291666666667  C 13.2413194444444 1.78819444444444  14.2118055555556 2.75868055555556  14.9270833333333 3.984375  Z " fill-rule="nonzero" fill="#f74e13" stroke="none" transform="matrix(1 0 0 1 364 161 )" />
  </g>
</svg>