<?xml version="1.0" encoding="utf-8"?>
<svg version="1.1" xmlns:xlink="http://www.w3.org/1999/xlink" width="18px" height="16px" xmlns="http://www.w3.org/2000/svg">
  <g transform="matrix(1 0 0 1 -36 -158 )">
    <path d="M 9.90800000000001 0.334500000000006  L 9.90800000000001 0.333500000000001  C 9.41894669315042 -0.110117601581443  8.67305330684957 -0.11011760158145  8.184 0.333500000000001  L 1.213 6.9525  C 1.07298082149107 7.07461092369223  0.992622330466467 7.25131624832645  0.992622330466467 7.43710227588311  C 0.992622330466467 7.79222137002429  1.28050323632527 8.08010227588311  1.63562233046647 8.08010227588311  C 1.79832261641008 8.08010227588311  1.95497380369977 8.01842406249519  2.074 7.9075  L 2.185 7.80249999999999  L 2.185 14.7095  C 2.18499896319289 14.7101666661647  2.1849984447891 14.71083333303  2.1849984447891 14.711500000001  C 2.1849984447891 15.4217381882834  2.7607602565067 15.9975000000009  3.4709984447891 15.9975000000009  L 7.21399999999999 15.9975  L 7.21399999999999 12.1275  C 7.21399963208231 12.1271666667898  7.21399944812345 12.1268333334131  7.21399944812345 12.1264999999998  C 7.21399944812345 11.6261300166531  7.61962946477676 11.2204999999998  8.11999944812344 11.2204999999998  L 9.88099999999999 11.2205  C 10.3813705352232 11.2204999999998  10.7870005518766 11.6261300166531  10.7870005518766 12.1264999999998  C 10.7870005518766 12.1268333334058  10.7870003679177 12.1271666667971  10.787 12.1275  L 10.787 15.9995  L 14.623 15.9995  C 15.3320674082427 15.9978493084894  15.9060062316985 15.4225728143296  15.9060062316985 14.7135034847048  C 15.9060062316985 14.712168987379  15.9060041544632 14.7108344908591  15.906 14.7095  L 15.906 7.8875  C 16.0271681242646 8.01298463716105  16.1941191723361 8.08385561388897  16.3685557181092 8.08385561388897  C 16.7236748122504 8.08385561388897  17.0115557181092 7.79597470803017  17.0115557181092 7.44085561388897  C 17.0115557181092 7.25360162184468  16.9299273471943 7.07565025851353  16.788 6.95350000000001  L 9.90800000000001 0.334500000000006  Z " fill-rule="nonzero" fill="#084a78" stroke="none" transform="matrix(1 0 0 1 36 158 )" />
  </g>
</svg>