<?xml version="1.0" encoding="utf-8"?>
<svg version="1.1" xmlns:xlink="http://www.w3.org/1999/xlink" width="62px" height="69px" xmlns="http://www.w3.org/2000/svg">
  <g transform="matrix(1 0 0 1 -221 -231 )">
    <path d="M 56.391 19.291  L 56.396 19.277  C 53.768 19.262  51.127 19.089  48.511 19.292  C 45.511 19.527  43.95 18.666  43.629 15.384  C 43.3313309680999 13.0643235060643  42.6254436240813 10.8156406576367  41.544 8.742  C 39.436 4.496  36.308 1.263  31.215 1.014  C 26.263 0.770999999999994  22.827 3.543  20.676 7.61399999999999  C 19.3286522372288 10.3492263067621  18.4073446119748 13.2743442941168  17.944 16.288  C 17.559 18.441  16.897 19.375  14.667 19.288  C 11.747 19.172  8.82000000000002 19.345  5.90000000000002 19.267  C 2.41300000000003 19.167  0.760000000000019 20.61  1.02800000000002 24.247  C 1.93700000000003 36.471  2.63900000000002 48.712  3.67100000000002 60.923  C 4.11300000000001 66.161  7.11100000000002 68.577  12.459 68.641  C 18.593 68.709  24.727 68.656  30.859 68.66  C 36.703 68.66  42.546 68.694  48.388 68.66  C 54.776 68.62  57.975 65.879  58.472 59.637  C 59.411 47.855  60.172 36.058  60.986 24.264  C 61.212 21.022  59.696 19.306  56.391 19.291  Z M 22.289 19  C 22.602 10.071  25.985 5.041  31.02 5.134  C 35.699 5.223  39.165 10.071  39.489 19  L 22.289 19  Z M 40.183 56.036  L 40.186 56.028  C 39.5032970372405 57.1753695404718  38.5691868166677 58.152902893553  37.454 58.887  C 35.1727071539449 60.2608839576644  32.5600535425224 60.9869091771943  29.897 60.987  C 26.8053655189849 60.9940217955681  23.7347826587465 60.4784262371159  20.815 59.462  L 21.198 55.525  C 23.8069883522874 56.8760145112478  26.705008515087 57.5733238032322  29.643 57.557  C 31.465565875133 57.6100429440478  33.253475921954 57.0517390782753  34.722 55.971  C 36.0740750098421 55.0090180562127  36.8608107667531 53.4389182670632  36.822 51.78  C 36.8330471701734 49.980702613708  35.9536778591279 48.2923434852213  34.473 47.27  C 32.7820124796872 46.1239815481333  30.9713589268626 45.1653410837767  29.073 44.411  C 28.0983333333333 43.9443333333333  27.1673333333333 43.458  26.28 42.952  C 25.3908845932757 42.4448459764369  24.5411565096547 41.8715636540883  23.738 41.237  C 23.016866504006 40.5593221992271  22.4157008655429 39.7644175782897  21.96 38.886  C 21.4753329389541 37.9675584905701  21.2343213856836 36.9401606691999  21.26 35.902  C 21.302 32.684  22.402 30.3976666666667  24.56 29.043  C 26.7330570127657 27.7024449410228  29.2473146324706 27.0186641049456  31.8 27.074  C 33.0096501028129 27.0929725691121  34.2173999555987 27.1770944494057  35.418 27.326  C 36.9146515790054 27.5853934878697  38.3825513415186 27.989626892696  39.801 28.533  L 39.418 32.026  C 37.1448704345028 31.0644340607674  34.7087176445246 30.5467897797702  32.241 30.501  C 30.5155979270038 30.4163046380484  28.8005640825856 30.812347980401  27.287 31.645  C 26.6569359647133 32.0216158846263  26.1500139665569 32.5733582650734  25.828 33.233  C 25.4120717407563 34.0580135542758  25.2147813880101 34.9759473770006  25.255 35.899  C 25.2606800211563 36.5959035723321  25.5080951866037 37.2692262725855  25.955 37.804  C 26.4842230468003 38.4076082771924  27.1067885961089 38.9224740378734  27.799 39.329  C 28.5583333333333 39.7496666666667  29.425 40.1943333333333  30.399 40.663  C 31.372 41.084  32.327 41.551  33.258 42.063  C 35.299798200158 42.9053405032761  37.1717923656495 44.1112096860786  38.783 45.622  C 41.3764373047378 48.4613808986926  41.9344920608272 52.6125110629176  40.183 56.036  Z " fill-rule="nonzero" fill="#ffffff" stroke="none" transform="matrix(1 0 0 1 221 231 )" />
  </g>
</svg>