<?xml version="1.0" encoding="utf-8"?>
<svg version="1.1" xmlns:xlink="http://www.w3.org/1999/xlink" width="19px" height="19px" xmlns="http://www.w3.org/2000/svg">
  <g transform="matrix(1 0 0 1 -1665 -35 )">
    <path d="M 9.032 0.0159999999999982  C 8.968 0.0159999999999982  8.889 0.0309999999999988  8.824 0.0309999999999988  C 8.799 0.0309999999999988  8.76 0.0159999999999982  8.73500000000001 0.0160000000000053  C 8.64396315423776 0.0196413409786018  8.55317537033848 0.0279858064105198  8.463 0.0410000000000039  C 6.29617177491505 0.178127049189463  4.25113874369535 1.09077761736615  2.702 2.612  L 2.687 2.612  L 2.672 2.63699999999999  C 0.979395474581874 4.32545761074763  0.0281507726143069 6.61798795288629  0.0281507726143069 9.00876171523971  C 0.0281507726143069 13.7598838748449  3.72125429360238 17.6926555156349  8.463 17.991  C 8.55281064689028 18.0069054836399  8.64379473223434 18.015267991484  8.735 18.016  C 8.775 18.016  8.799 18.001  8.82399999999999 18.001  C 8.88799999999999 18.001  8.967 18.016  9.03199999999999 18.016  C 14.0025627484771 18.016  18.032 13.9865627484771  18.032 9.016  C 18.032 4.04543725152286  14.0025627484771 0.0159999999999982  9.03199999999999 0.0159999999999982  Z M 11.089 13.639  C 10.471 15.583  9.546 16.73  8.814 16.804  C 8.735 16.804  8.661 16.789  8.582 16.789  C 7.86 16.646  6.99 15.543  6.411 13.703  C 7.95997213074752 13.4666622134218  9.53414211448414 13.44512589898  11.089 13.639  Z M 11.372 12.462  C 10.5957479245496 12.3655538354114  9.81421972126426 12.317793778544  9.032 12.319  C 8.04732823448925 12.3197962714652  7.06403510156602 12.3926575573175  6.09 12.537  C 5.89512650865482 11.5754217694438  5.77940566529958 10.5994870269276  5.744 9.619  L 11.708 9.619  C 11.6783218365012 10.5745923672705  11.5659014138439 11.5258163601709  11.372 12.462  Z M 3.019 4.06099999999999  C 3.67317203060511 4.3355072963064  4.35186791044542 4.54745327160927  5.046 4.69399999999999  C 4.74383521342723 5.90995566045036  4.5761628630313 7.15542587919133  4.546 8.40799999999999  L 1.268 8.408  C 1.38713577743289 6.81256836395912  1.9990027708695 5.29355875775183  3.019 4.06099999999999  Z M 6.604 3.743  C 7.178 2.248  7.939 1.366  8.582 1.23699999999999  C 8.661 1.23699999999999  8.735 1.22199999999999  8.814 1.22199999999999  C 9.482 1.28599999999999  10.293 2.21099999999999  10.896 3.822  C 9.46707913295663 3.96140126252899  8.02682298212467 3.9348914219149  6.604 3.743  Z M 11.025 1.48  L 11.025 1.47899999999999  C 12.1752119912497 1.77978072297571  13.2398485682785 2.34359308386525  14.135 3.12599999999999  C 13.4697351374695 3.35356348545307  12.7867214060937 3.52548760784639  12.093 3.63999999999999  C 11.8397753431736 2.87359327743489  11.4802710750362 2.14650599356138  11.025 1.48  Z M 6.229 4.91099999999999  C 7.1572395518574 5.04652562339479  8.09392374534692 5.116033405145  9.032 5.11899999999999  C 9.77545945143374 5.11645337049438  10.5182276188369 5.07338950820449  11.257 4.98999999999999  C 11.5391972145093 6.11313817846681  11.6951625865688 7.2642632470864  11.722 8.422  L 5.739 8.422  C 5.77683870247042 7.23755675468443  5.94110409698021 6.06054491769687  6.229 4.91099999999999  Z M 1.268 9.61599999999999  L 4.542 9.61899999999999  C 4.57597029725228 10.6776317954139  4.70008593382348 11.7314438040372  4.913 12.769  C 4.13914407795589 12.93937058179  3.38509256258311 13.1897156848937  2.663 13.516  C 1.84973895535586 12.3682200888348  1.36720241132516 11.0191931915447  1.268 9.61599999999999  Z M 12.582 12.659  C 12.774599720544 11.6562979861885  12.8856297364859 10.6396375992503  12.914 9.61899999999999  L 16.796 9.619  C 16.6841299292979 11.0202975035697  16.2008858650075 12.3664773969502  15.396 13.519  C 14.4970241584893 13.1174654502776  13.5518559969908 12.8286080874884  12.582 12.659  Z M 12.914 8.42699999999999  L 12.914 8.41199999999999  C 12.8825171578661 7.19864986516041  12.7233053054635 5.99199161537248  12.439 4.812  C 13.3313463958413 4.65471517386241  14.2059403377075 4.4095207022247  15.05 4.07999999999998  C 16.0695218626466 5.31150346429397  16.6767334017706 6.83198074572939  16.786 8.42699999999999  L 12.914 8.42699999999999  Z M 6.268 1.73099999999999  L 6.268 1.72599999999999  C 5.91718818391639 2.29847017840139  5.62886847279465 2.90695887105949  5.40799999999999 3.54099999999998  C 4.90579813330315 3.44000978080401  4.41152004008163 3.30298880837614  3.92900000000001 3.131  C 4.62165450645331 2.53232679630201  5.4131011525879 2.05860926548181  6.268 1.73099999999999  Z M 3.464 14.465  L 3.468 14.464  C 4.0349191164561 14.2338603096671  4.62079766861629 14.053512771338  5.219 13.925  C 5.46209289910687 14.7614995613383  5.81624817956837 15.5616281579365  6.27199999999999 16.304  C 5.21572760974621 15.8979447198954  4.25837051767454 15.2709576499809  3.464 14.465  Z M 14.586 14.476  C 13.6108785115036 15.4793985332274  12.3791847315048 16.1960706792981  11.025 16.548  C 11.5841394158678 15.7051724909246  12.0095045647208 14.7809056329887  12.286 13.808  C 13.0731301659026 13.9529640917843  13.8436775475104 14.1767578530513  14.586 14.476  Z " fill-rule="nonzero" fill="#666666" stroke="none" transform="matrix(1 0 0 1 1665 35 )" />
  </g>
</svg>