<?xml version="1.0" encoding="utf-8"?>
<svg version="1.1" xmlns:xlink="http://www.w3.org/1999/xlink" width="18px" height="18px" xmlns="http://www.w3.org/2000/svg">
  <g transform="matrix(1 0 0 1 -1755 -36 )">
    <path d="M 7.32397959183673 16.46015625  C 7.31632653061224 16.51171875  7.32397959183673 16.575  7.3469387755102 16.65  C 7.3469387755102 16.6875  7.35076530612245 16.78125  7.35841836734694 16.93125  C 7.36607142857143 17.08125  7.36798469387755 17.20546875  7.36415816326531 17.30390625  C 7.36033163265306 17.40234375  7.34885204081633 17.5125  7.3297193877551 17.634375  C 7.31058673469388 17.75625  7.27232142857143 17.84765625  7.21492346938776 17.90859375  C 7.15752551020408 17.96953125  7.07908163265306 18  6.97959183673469 18  L 3.30612244897959 18  C 2.39540816326531 18  1.61670918367347 17.60390625  0.970025510204082 16.81171875  C 0.323341836734694 16.01953125  0 15.065625  0 13.95  L 0 4.05  C 0 2.934375  0.323341836734694 1.98046875  0.970025510204082 1.18828125  C 1.61670918367347 0.396093749999997  2.39540816326531 0  3.30612244897959 0  L 6.97959183673469 0  C 7.07908163265306 0  7.16517857142857 0.0445312499999975  7.23788265306122 0.13359375  C 7.31058673469388 0.222656249999999  7.3469387755102 0.328124999999999  7.3469387755102 0.45  C 7.3469387755102 0.487499999999998  7.35076530612245 0.581249999999999  7.35841836734694 0.73125  C 7.36607142857143 0.881249999999998  7.36798469387755 1.00546875  7.36415816326531 1.10390625  C 7.36033163265306 1.20234375  7.34885204081633 1.3125  7.3297193877551 1.434375  C 7.31058673469388 1.55625  7.27232142857143 1.64765625  7.21492346938776 1.70859375  C 7.15752551020408 1.76953125  7.07908163265306 1.8  6.97959183673469 1.8  L 3.30612244897959 1.8  C 2.80102040816327 1.8  2.36862244897959 2.0203125  2.00892857142857 2.4609375  C 1.64923469387755 2.9015625  1.46938775510204 3.43125  1.46938775510204 4.05  L 1.46938775510204 13.95  C 1.46938775510204 14.56875  1.64923469387755 15.0984375  2.00892857142857 15.5390625  C 2.36862244897959 15.9796875  2.80102040816327 16.2  3.30612244897959 16.2  L 6.61224489795918 16.2  L 6.73852040816327 16.2  L 6.88775510204082 16.2  C 6.88775510204082 16.2  6.93176020408163 16.2046875  7.01977040816327 16.2140625  C 7.1077806122449 16.2234375  7.15178571428571 16.2375  7.15178571428571 16.25625  C 7.15178571428571 16.275  7.18239795918367 16.30078125  7.24362244897959 16.33359375  C 7.30484693877551 16.36640625  7.33163265306123 16.40859375  7.32397959183673 16.46015625  Z M 17.781887755102 8.3671875  C 17.9272959183673 8.5453125  18 8.75625  18 9  C 18 9.24375  17.9272959183673 9.4546875  17.781887755102 9.6328125  L 11.5369897959184 17.2828125  C 11.3915816326531 17.4609375  11.219387755102 17.55  11.0204081632653 17.55  C 10.8214285714286 17.55  10.6492346938776 17.4609375  10.5038265306122 17.2828125  C 10.3584183673469 17.1046875  10.2857142857143 16.89375  10.2857142857143 16.65  L 10.2857142857143 12.6  L 5.14285714285714 12.6  C 4.94387755102041 12.6  4.77168367346939 12.5109375  4.62627551020408 12.3328125  C 4.48086734693878 12.1546875  4.40816326530612 11.94375  4.40816326530612 11.7  L 4.40816326530612 6.3  C 4.40816326530612 6.05625  4.48086734693878 5.8453125  4.62627551020408 5.6671875  C 4.77168367346939 5.4890625  4.94387755102041 5.4  5.14285714285714 5.4  L 10.2857142857143 5.4  L 10.2857142857143 1.35  C 10.2857142857143 1.10625  10.3584183673469 0.895312499999997  10.5038265306122 0.717187499999999  C 10.6492346938776 0.539062499999999  10.8214285714286 0.45  11.0204081632653 0.45  C 11.219387755102 0.45  11.3915816326531 0.539062499999999  11.5369897959184 0.717187499999999  L 17.781887755102 8.3671875  Z " fill-rule="nonzero" fill="#666666" stroke="none" transform="matrix(1 0 0 1 1755 36 )" />
  </g>
</svg>