<?xml version="1.0" encoding="utf-8"?>
<svg version="1.1" xmlns:xlink="http://www.w3.org/1999/xlink" width="18px" height="18px" xmlns="http://www.w3.org/2000/svg">
  <g transform="matrix(1 0 0 1 -1712 -35 )">
    <path d="M 18 11.3  C 17.0455660813409 10.9361834491425  16.4143812818901 10.0214228702282  16.413 9.00000000000003  C 16.41438128189 7.97857712977188  17.0455660813409 7.0638165508575  18 6.69999999999999  C 17.782382277741 5.84360515518242  17.4429180112348 5.02289640768677  16.992 4.26299999999998  C 16.6752463971769 4.4050690411789  16.332019349041 4.4785158256982  15.9848645458727 4.4785158256982  C 14.6256917765391 4.4785158256982  13.5238645458727 3.37668859503177  13.5238645458727 2.01751582569818  C 13.5238645458727 1.66985101406004  13.5975272390997 1.32613141385374  13.7399999999999 1.00899999999996  C 12.9792273148396 0.558412564557472  12.1579079942932 0.218974321379619  11.301 0.000999999999947931  C 10.9384600275844 0.9564770624998  10.022945032065 1.58830303082914  9.00099999999995 1.58830303082914  C 7.9790549679349 1.58830303082914  7.06353997241553 0.9564770624998  6.70099999999997 0.00100000000000477  C 5.84460515518242 0.218617722258955  5.02389640768675 0.558081988765167  4.26399999999992 1.00899999999996  C 4.40583049101284 1.32560450406754  4.47914869774604 1.66860911757587  4.47914869774604 2.01553029043339  C 4.47914869774604 3.3752553445168  3.37687375182944 4.47753029043341  2.01714869774605 4.47753029043341  C 1.67073771183081 4.47753029043341  1.32822591304037 4.40442751883734  1.01199999999994 4.26299999999998  C 0.559612036745989 5.0223961242682  0.219424564745196 5.84322470769982  0.00199999999995271 6.69999999999999  C 0.957477062499777 7.06253997241558  1.58930303082911 7.97805496793495  1.58930303082911 8.99999999999997  C 1.58930303082911 10.021945032065  0.957477062499777 10.9374600275844  0.00199999999995271 11.3  C 0.219617722258931 12.1563948448176  0.559081988765143 12.9771035923132  1.00999999999993 13.737  C 1.3262259130403 13.5955724811626  1.66873771183086 13.5224697095665  2.01514869774607 13.5224697095665  C 3.37487375182948 13.5224697095665  4.47714869774606 14.6247446554831  4.47714869774606 15.9844697095665  C 4.47714869774606 16.331390882424  4.40383049101285 16.6743954959324  4.26199999999994 16.991  C 5.02277268516025 17.4415874354424  5.84409200570667 17.7810256786203  6.70099999999994 17.999  C 7.06353997241553 17.0435229375001  7.9790549679349 16.4116969691708  9.00099999999995 16.4116969691708  C 10.022945032065 16.4116969691708  10.9384600275844 17.0435229375001  11.301 17.999  C 12.1573948448175 17.781382277741  12.9781035923132 17.4419180112348  13.7379999999999 16.991  C 13.596169508987 16.6743954959324  13.5228513022538 16.331390882424  13.5228513022538 15.9844697095665  C 13.5228513022538 14.6247446554831  14.6251262481704 13.5224697095665  15.9848513022538 13.5224697095665  C 16.3312622881691 13.5224697095665  16.6737740869595 13.5955724811626  16.99 13.737  C 17.4423879632539 12.9776038757318  17.7825754352547 12.1567752923001  18 11.3  Z M 8.99999999999997 11.469  L 8.99999999999994 11.471  C 7.63530438316806 11.471  6.52899999999997 10.3646956168319  6.52899999999997 9  C 6.52899999999997 7.63530438316812  7.63530438316806 6.529  8.99999999999994 6.529  C 10.3646956168318 6.529  11.4709999999999 7.63530438316812  11.4709999999999 9  C 11.469345151399 10.3636858508959  10.36368674381 11.4684493508301  8.99999999999997 11.469  Z " fill-rule="nonzero" fill="#46a1ff" stroke="none" transform="matrix(1 0 0 1 1712 35 )" />
  </g>
</svg>