<?xml version="1.0" encoding="utf-8"?>
<svg version="1.1" xmlns:xlink="http://www.w3.org/1999/xlink" width="16px" height="16px" xmlns="http://www.w3.org/2000/svg">
  <g transform="matrix(1 0 0 1 -38 -269 )">
    <path d="M 14.7215242881072 4.87325516471245  L 14.9833891680625 3.91764377442768  C 15.0762865147022 3.51325814938326  14.852777472572 3.10314212085912  14.4625907314349 2.96203238414292  L 4.21370742601896 0.269123394751517  C 4.14430617869996 0.202280782009538  4.04844621932504 0.170327462217891  3.95281965382466 0.182160804020086  C 3.60730775367352 0.196595185003346  3.31833491194831 0.44939561756749  3.25809603573421 0.789921831379111  L 2.21552205471804 4.52442769402568  L 1.86767169179231 4.52442769402568  C 1.85123562329316 4.52343737699225  1.83477347567923 4.52294188210918  1.81830759958547 4.52294188210918  C 1.36500855868583 4.52294188210918  0.997537080322488 4.89041336047251  0.997537080322488 5.34371240137216  C 0.997537080322488 5.36017827746593  0.998032575205556 5.37664042507986  0.999022892238983 5.393076493579  L 0.999022892238983 14.9472361809045  C 0.998032575205556 14.9636722494037  0.997537080322488 14.9801343970176  0.997537080322488 14.9966002731114  C 0.997537080322488 15.449899314011  1.36500855868583 15.8173707923743  1.81830759958547 15.8173707923743  C 1.83477347567923 15.8173707923743  1.85123562329316 15.8168752974913  1.8676716917923 15.8158849804578  L 14.0268006700168 15.8158849804579  C 14.0432367385159 15.8168752974913  14.0596988861299 15.8173707923743  14.0761647622236 15.8173707923743  C 14.5294638031232 15.8173707923743  14.8969352814866 15.449899314011  14.8969352814866 14.9966002731114  C 14.8969352814866 14.9801343970177  14.8964397866035 14.9636722494035  14.8954494695701 14.9472361809045  L 14.8954494695701 5.39405360134003  C 14.8773191522384 5.20959594634116  14.8178728941458 5.03159113980543  14.7215242881072 4.87325516471245  Z M 10.1193467336683 9.91024567280848  L 8.38204913456168 9.91024567280848  L 8.38204913456168 10.7788944723618  L 9.250697934115 10.7788944723618  C 9.49056867659107 10.7788944723618  9.68502233389165 10.9733481296624  9.68502233389165 11.2132188721385  C 9.68502233389165 11.4530896146145  9.49056867659107 11.6475432719151  9.250697934115 11.6475432719151  L 8.38204913456168 11.6475432719151  L 8.38204913456167 12.8630653266332  C 8.38204913456165 13.1029360691092  8.18759547726108 13.2973897264098  7.94772473478501 13.2973897264098  C 7.70785399230894 13.2973897264098  7.51340033500836 13.1029360691092  7.51340033500837 12.8630653266332  L 7.51340033500837 11.6475432719151  L 6.64475153545506 11.6475432719151  C 6.404880792979 11.6475432719151  6.21042713567839 11.4530896146145  6.21042713567839 11.2132188721385  C 6.21042713567839 10.9733481296624  6.404880792979 10.7788944723618  6.64475153545506 10.7788944723618  L 7.51340033500837 10.7788944723618  L 7.51340033500837 9.91024567280847  L 5.77610273590172 9.91024567280847  C 5.53623199342566 9.91024567280847  5.34177833612506 9.71579201550787  5.34177833612506 9.47592127303181  C 5.34177833612506 9.23605053055574  5.53623199342566 9.04159687325514  5.77610273590172 9.04159687325514  L 6.4718034617532 9.04159687325514  L 5.6901172529313 7.73911222780567  C 5.62580191028779 7.66528240825861  5.59037289418156 7.57067446264666  5.59037289418156 7.4727596754401  C 5.59037289418156 7.33457848808561  5.66073887960155 7.20590869919769  5.77707984366273 7.13135120044667  C 5.99363015264947 7.01795297152103  6.26106487016975 7.09448573634194  6.38484087102177 7.30527638190953  L 7.42741485203796 9.12953657174761  L 8.46998883305415 9.12953657174761  L 9.51256281407032 7.30527638190953  C 9.58798030997255 7.15260303611174  9.74350939763917 7.05596113924437  9.91379430362107 7.05596113924437  C 10.1609502092545 7.05596113924437  10.3613096581716 7.25632058816153  10.3613096581716 7.50347649379491  C 10.3613096581716 7.58673048369513  10.3380857646263 7.66833393375698  10.2942490228922 7.73911222780568  L 9.51256281407032 9.12855946398658  L 10.1203238414294 9.12855946398659  C 10.1283692767517 9.12808494446188  10.1364269446831 9.12784753025028  10.1444863614303 9.12784753025028  C 10.3711358818801 9.12784753025028  10.5548716210618 9.31158326943194  10.5548716210618 9.53823278988177  C 10.5548716210618 9.54629220662882  10.5546342068502 9.55434987456055  10.5541596873255 9.56239530988272  C 10.5286068708183 9.77779375947829  10.3351610996939 9.93298508597585  10.1193467336683 9.9112227805695  Z M 13.9408151870463 4.5254048017867  L 3.08417085427135 4.5254048017867  L 4.03978224455611 1.13777219430485  L 14.1147403685092 3.83068118369625  L 13.9408151870463 4.5254048017867  Z M 14.0277777777778 4.52540480178669  C 14.1234043432782 4.5135714599845  14.2192643026531 4.54552477977614  14.2886655499721 4.61236739251814  C 14.2192643026531 4.54552477977614  14.1234043432782 4.5135714599845  14.0277777777778 4.52540480178669  Z M 14.5475761095057 4.69935298038818  C 14.5482352472617 4.69935298038818  14.5488943627256 4.69934531415682  14.5495533221664 4.69932998324957  L 14.4625907314349 4.61236739251814  C 14.4625754005277 4.61302635195924  14.4625677342964 4.61368546742252  14.4625677342964 4.6143446051788  C 14.4625677342964 4.66129343441484  14.5006272802697 4.69935298038818  14.5475761095057 4.69935298038818  Z " fill-rule="nonzero" fill="#084a78" stroke="none" transform="matrix(1 0 0 1 38 269 )" />
  </g>
</svg>