<?xml version="1.0" encoding="utf-8"?>
<svg version="1.1" xmlns:xlink="http://www.w3.org/1999/xlink" width="18px" height="15px" xmlns="http://www.w3.org/2000/svg">
  <g transform="matrix(1 0 0 1 -36 -198 )">
    <path d="M 17 6.014  L 17 5.796  C 17.0097989708819 5.71604173006544  16.9829737269756 5.63593346744099  16.927 5.578  L 16.927 5.505  C 16.927 5.432  16.854 5.287  16.854 5.214  L 15.255 0.923  C 15.0942798361491 0.464383798579408  14.6491415751648 0.167760961058196  14.164 0.196  L 3.982 0.196  C 3.48727495659816 0.197106737584986  3.03605888453588 0.478922961287119  2.818 0.923  L 1.291 5.068  C 1.09645543567938 5.34465227963776  0.994579591232313 5.67583629629385  1 6.014  C 1.03047283781389 7.113769710502  1.9358508297585 7.98668572139949  3.036 7.977  C 3.96763266673982 7.96392353888804  4.75985917595191 7.29361025769325  4.927 6.377  L 5 6.377  C 5.22988942529084 7.47552972014918  6.29755355628889 8.18730580748121  7.4 7.977  C 8.17116931675655 7.82401931203265  8.77401931203265 7.22116931675655  8.927 6.45  L 9 6.45  C 9.17762502908347 7.37094338564002  9.98366840777882 8.036378329487  10.9215849128639 8.036378329487  C 11.082894335827 8.036378329487  11.2435849480466 8.01643426757424  11.4 7.977  C 12.1711693167566 7.82401931203265  12.7740193120327 7.22116931675655  12.927 6.45  L 13 6.45  C 13.16934121233 7.39638246183048  13.9925519306844 8.08536661818211  14.9539655826853 8.08536661818211  C 15.0791473957835 8.08536661818211  15.2040485432681 8.07352499985264  15.327 8.05  C 16.268181394364 7.80751373792641  16.9445940446061 6.98433611934127  17 6.014  Z M 14.818 8.923  L 14.745 12.996  L 14.745 13.141  L 12.781 10.523  L 4.781 10.523  L 3.255 12.996  L 3.255 8.923  L 2.091 8.923  L 2.091 13.068  C 2.09580776112478 14.0020454264533  2.83098559847821 14.7688627164603  3.764 14.813  L 14.309 14.813  C 15.2386300311522 14.7941686447032  15.9824084348226 14.0351710651018  15.9824084348226 13.1053503217526  C 15.9824084348226 13.0928990979406  15.9822722817421 13.0804482463451  15.982 13.068  L 15.982 8.923  L 14.818 8.923  Z " fill-rule="nonzero" fill="#084a78" stroke="none" transform="matrix(1 0 0 1 36 198 )" />
  </g>
</svg>