<?xml version="1.0" encoding="utf-8"?>
<svg version="1.1" xmlns:xlink="http://www.w3.org/1999/xlink" width="16px" height="18px" xmlns="http://www.w3.org/2000/svg">
  <g transform="matrix(1 0 0 1 -36 -231 )">
    <path d="M 16 1.975  C 15.96 1.52  15.96 1.244  15.682 1.104  C 15.4568692381307 0.963197099473451  15.1711307618693 0.963197099473451  14.946 1.104  L 0.438 8.329  C 0.138 8.329  0 8.629  0 8.904  C 0 9.204  0.139 9.478  0.3 9.478  L 3.779 11.655  C 4.0671914978279 11.818504983379  4.43011981210699 11.761266003527  4.654 11.517  L 12.345 4.568  L 12.645 4.706  L 5.665 12.09  C 5.55769683505043 12.2079355439212  5.50696682932689 12.366694914351  5.526 12.525  L 5.526 15.693  C 5.51908416495102 16.0003991629901  5.68895877287781 16.2845601204146  5.963 16.424  C 6.21365284389381 16.529647871867  6.50314875636004 16.4757607251172  6.699 16.287  L 8.448 14.544  L 11.927 16.861  C 12.0458551408491 16.9680326569275  12.2052308147218 17.0183618170979  12.364 16.999  L 12.664 16.999  C 12.964 16.861  13.102 16.699  13.102 16.425  L 16 1.975  Z " fill-rule="nonzero" fill="#8894b0" stroke="none" transform="matrix(1 0 0 1 36 231 )" />
  </g>
</svg>