<?xml version="1.0" encoding="utf-8"?>
<svg version="1.1" xmlns:xlink="http://www.w3.org/1999/xlink" width="17px" height="18px" xmlns="http://www.w3.org/2000/svg">
  <g transform="matrix(1 0 0 1 -220 -33 )">
    <path d="M 3.552734375 5.03053977272727  C 3.6128162202381 5.11150568181818  3.64285714285714 5.20738636363636  3.64285714285714 5.31818181818182  L 3.64285714285714 12.6818181818182  C 3.64285714285714 12.7926136363636  3.6128162202381 12.8884943181818  3.552734375 12.9694602272727  C 3.4926525297619 13.0504261363636  3.42150297619048 13.0909090909091  3.33928571428571 13.0909090909091  C 3.25074404761905 13.0909090909091  3.17801339285714 13.0525568181818  3.12109375 12.9758522727273  L 0.388950892857143 9.29403409090909  C 0.33203125 9.21732954545455  0.303571428571429 9.11931818181818  0.303571428571429 9  C 0.303571428571429 8.88068181818182  0.33203125 8.78267045454546  0.388950892857143 8.70596590909091  L 3.12109375 5.02414772727273  C 3.17801339285714 4.94744318181818  3.25074404761905 4.90909090909091  3.33928571428571 4.90909090909091  C 3.42150297619048 4.90909090909091  3.4926525297619 4.94957386363636  3.552734375 5.03053977272727  Z M 16.9098772321429 14.8487215909091  C 16.969959077381 14.9296875  17 15.0255681818182  17 15.1363636363636  L 17 17.5909090909091  C 17 17.7017045454545  16.969959077381 17.7975852272727  16.9098772321429 17.8785511363636  C 16.8497953869048 17.9595170454545  16.7786458333333 18  16.6964285714286 18  L 0.303571428571429 18  C 0.221354166666667 18  0.150204613095238 17.9595170454545  0.0901227678571429 17.8785511363636  C 0.0300409226190476 17.7975852272727  0 17.7017045454545  0 17.5909090909091  L 0 15.1363636363636  C 0 15.0255681818182  0.0300409226190476 14.9296875  0.0901227678571429 14.8487215909091  C 0.150204613095238 14.7677556818182  0.221354166666667 14.7272727272727  0.303571428571429 14.7272727272727  L 16.6964285714286 14.7272727272727  C 16.7786458333333 14.7272727272727  16.8497953869048 14.7677556818182  16.9098772321429 14.8487215909091  Z M 16.9098772321429 9.93963068181818  C 16.969959077381 10.0205965909091  17 10.1164772727273  17 10.2272727272727  L 17 12.6818181818182  C 17 12.7926136363636  16.969959077381 12.8884943181818  16.9098772321429 12.9694602272727  C 16.8497953869048 13.0504261363636  16.7786458333333 13.0909090909091  16.6964285714286 13  L 6.375 13  C 6.29278273809524 13.0909090909091  6.22163318452381 13.0504261363636  6.16155133928571 12.9694602272727  C 6.10146949404762 12.8884943181818  6.07142857142857 12.7926136363636  6.07142857142857 12.6818181818182  L 6.07142857142857 10.2272727272727  C 6.07142857142857 10.1164772727273  6.10146949404762 10.0205965909091  6.16155133928571 9.93963068181818  C 6.22163318452381 9.85866477272727  6.29278273809524 9.81818181818182  6.375 9.81818181818182  L 16.6964285714286 9.81818181818182  C 16.7786458333333 9.81818181818182  16.8497953869048 9.85866477272727  16.9098772321429 9.93963068181818  Z M 16.9098772321429 5.03053977272727  C 16.969959077381 5.11150568181818  17 5.20738636363636  17 5.31818181818182  L 17 7.77272727272727  C 17 7.88352272727273  16.969959077381 7.97940340909091  16.9098772321429 8.06036931818182  C 16.8497953869048 8.14133522727273  16.7786458333333 8.18181818181818  16.6964285714286 8.18181818181818  L 6.375 8.18181818181818  C 6.29278273809524 8.18181818181818  6.22163318452381 8.14133522727273  6.16155133928571 8.06036931818182  C 6.10146949404762 7.97940340909091  6.07142857142857 7.88352272727273  6.07142857142857 7.77272727272727  L 6.07142857142857 5.31818181818182  C 6.07142857142857 5.20738636363636  6.10146949404762 5.11150568181818  6.16155133928571 5.03053977272727  C 6.22163318452381 4.94957386363636  6.29278273809524 4.90909090909091  6.375 5  L 16.6964285714286 5  C 16.7786458333333 4.90909090909091  16.8497953869048 4.94957386363636  16.9098772321429 5.03053977272727  Z M 16.9098772321429 0.121448863636363  C 16.969959077381 0.202414772727272  17 0.298295454545453  17 0.409090909090909  L 17 2.86363636363636  C 17 2.97443181818182  16.969959077381 3.0703125  16.9098772321429 3.15127840909091  C 16.8497953869048 3.23224431818182  16.7786458333333 3.27272727272727  16.6964285714286 3.27272727272727  L 0.303571428571429 3.27272727272727  C 0.221354166666667 3.27272727272727  0.150204613095238 3.23224431818182  0.0901227678571429 3.15127840909091  C 0.0300409226190476 3.0703125  0 2.97443181818182  0 2.86363636363636  L 0 0.409090909090909  C 0 0.298295454545453  0.0300409226190476 0.202414772727272  0.0901227678571429 0.121448863636363  C 0.150204613095238 0.0404829545454517  0.221354166666667 0  0.303571428571429 0  L 16.6964285714286 0  C 16.7786458333333 0  16.8497953869048 0.0404829545454517  16.9098772321429 0.121448863636363  Z " fill-rule="nonzero" fill="#d7d7d7" stroke="none" transform="matrix(1 0 0 1 220 33 )" />
  </g>
</svg>