<?xml version="1.0" encoding="utf-8"?>
<svg version="1.1" xmlns:xlink="http://www.w3.org/1999/xlink" width="16px" height="16px" xmlns="http://www.w3.org/2000/svg" fill="#084a78">
  <g transform="matrix(1 0 0 1 -38 -307 )">
    <path d="M 4.32142857142857 11.9545454545455  C 4.48809523809524 12.1666666666667  4.57142857142857 12.4242424242424  4.57142857142857 12.7272727272727  L 4.57142857142857 14.9090909090909  C 4.57142857142857 15.2121212121212  4.48809523809524 15.469696969697  4.32142857142857 15.6818181818182  C 4.15476190476191 15.8939393939394  3.95238095238095 16  3.71428571428571 16  L 0.857142857142857 16  C 0.619047619047619 16  0.416666666666667 15.8939393939394  0.25 15.6818181818182  C 0.0833333333333333 15.469696969697  0 15.2121212121212  0 14.9090909090909  L 0 12.7272727272727  C 0 12.4242424242424  0.0833333333333333 12.1666666666667  0.25 11.9545454545455  C 0.416666666666667 11.7424242424242  0.619047619047619 11.6363636363636  0.857142857142857 11.6363636363636  L 3.71428571428571 11.6363636363636  C 3.95238095238095 11.6363636363636  4.15476190476191 11.7424242424242  4.32142857142857 11.9545454545455  Z M 4.32142857142857 6.13636363636364  C 4.48809523809524 6.34848484848485  4.57142857142857 6.60606060606061  4.57142857142857 6.90909090909091  L 4.57142857142857 9.09090909090909  C 4.57142857142857 9.39393939393939  4.48809523809524 9.65151515151515  4.32142857142857 9.86363636363636  C 4.15476190476191 10.0757575757576  3.95238095238095 10.1818181818182  3.71428571428571 10.1818181818182  L 0.857142857142857 10.1818181818182  C 0.619047619047619 10.1818181818182  0.416666666666667 10.0757575757576  0.25 9.86363636363636  C 0.0833333333333333 9.65151515151515  0 9.39393939393939  0 9.09090909090909  L 0 6.90909090909091  C 0 6.60606060606061  0.0833333333333333 6.34848484848485  0.25 6.13636363636364  C 0.416666666666667 5.92424242424242  0.619047619047619 5.81818181818182  0.857142857142857 5.81818181818182  L 3.71428571428571 5.81818181818182  C 3.95238095238095 5.81818181818182  4.15476190476191 5.92424242424242  4.32142857142857 6.13636363636364  Z M 15.75 11.9545454545455  C 15.9166666666667 12.1666666666667  16 12.4242424242424  16 12.7272727272727  L 16 14.9090909090909  C 16 15.2121212121212  15.9166666666667 15.469696969697  15.75 15.6818181818182  C 15.5833333333333 15.8939393939394  15.3809523809524 16  15.1428571428571 16  L 6.57142857142857 16  C 6.33333333333333 16  6.13095238095238 15.8939393939394  5.96428571428571 15.6818181818182  C 5.79761904761905 15.469696969697  5.71428571428571 15.2121212121212  5.71428571428571 14.9090909090909  L 5.71428571428571 12.7272727272727  C 5.71428571428571 12.4242424242424  5.79761904761905 12.1666666666667  5.96428571428571 11.9545454545455  C 6.13095238095238 11.7424242424242  6.33333333333333 11.6363636363636  6.57142857142857 11.6363636363636  L 15.1428571428571 11.6363636363636  C 15.3809523809524 11.6363636363636  15.5833333333333 11.7424242424242  15.75 11.9545454545455  Z M 4.32142857142857 0.318181818181818  C 4.48809523809524 0.530303030303029  4.57142857142857 0.787878787878787  4.57142857142857 1.09090909090909  L 4.57142857142857 3.27272727272727  C 4.57142857142857 3.57575757575757  4.48809523809524 3.83333333333333  4.32142857142857 4.04545454545455  C 4.15476190476191 4.25757575757576  3.95238095238095 4.36363636363636  3.71428571428571 4.36363636363636  L 0.857142857142857 4.36363636363636  C 0.619047619047619 4.36363636363636  0.416666666666667 4.25757575757576  0.25 4.04545454545455  C 0.0833333333333333 3.83333333333333  0 3.57575757575757  0 3.27272727272727  L 0 1.09090909090909  C 0 0.787878787878787  0.0833333333333333 0.530303030303029  0.25 0.318181818181818  C 0.416666666666667 0.106060606060606  0.619047619047619 0  0.857142857142857 0  L 3.71428571428571 0  C 3.95238095238095 0  4.15476190476191 0.106060606060606  4.32142857142857 0.318181818181818  Z M 15.75 6.13636363636364  C 15.9166666666667 6.34848484848485  16 6.60606060606061  16 6.90909090909091  L 16 9.09090909090909  C 16 9.39393939393939  15.9166666666667 9.65151515151515  15.75 9.86363636363636  C 15.5833333333333 10.0757575757576  15.3809523809524 10.1818181818182  15.1428571428571 10.1818181818182  L 6.57142857142857 10.1818181818182  C 6.33333333333333 10.1818181818182  6.13095238095238 10.0757575757576  5.96428571428571 9.86363636363636  C 5.79761904761905 9.65151515151515  5.71428571428571 9.39393939393939  5.71428571428571 9.09090909090909  L 5.71428571428571 6.90909090909091  C 5.71428571428571 6.60606060606061  5.79761904761905 6.34848484848485  5.96428571428571 6.13636363636364  C 6.13095238095238 5.92424242424242  6.33333333333333 5.81818181818182  6.57142857142857 5.81818181818182  L 15.1428571428571 5.81818181818182  C 15.3809523809524 5.81818181818182  15.5833333333333 5.92424242424242  15.75 6.13636363636364  Z M 15.75 0.318181818181818  C 15.9166666666667 0.530303030303029  16 0.787878787878787  16 1.09090909090909  L 16 3.27272727272727  C 16 3.57575757575757  15.9166666666667 3.83333333333333  15.75 4.04545454545455  C 15.5833333333333 4.25757575757576  15.3809523809524 4.36363636363636  15.1428571428571 4.36363636363636  L 6.57142857142857 4.36363636363636  C 6.33333333333333 4.36363636363636  6.13095238095238 4.25757575757576  5.96428571428571 4.04545454545455  C 5.79761904761905 3.83333333333333  5.71428571428571 3.57575757575757  5.71428571428571 3.27272727272727  L 5.71428571428571 1.09090909090909  C 5.71428571428571 0.787878787878787  5.79761904761905 0.530303030303029  5.96428571428571 0.318181818181818  C 6.13095238095238 0.106060606060606  6.33333333333333 0  6.57142857142857 0  L 15.1428571428571 0  C 15.3809523809524 0  15.5833333333333 0.106060606060606  15.75 0.318181818181818  Z " fill-rule="nonzero" fill="#8894b0" stroke="none" transform="matrix(1 0 0 1 38 307 )" />
  </g>
</svg>