<?xml version="1.0" encoding="utf-8"?>
<svg version="1.1" xmlns:xlink="http://www.w3.org/1999/xlink" width="22px" height="18px" xmlns="http://www.w3.org/2000/svg">
  <g transform="matrix(1 0 0 1 -1870 -676 )">
    <path d="M 14.724 5.313  L 14.722 5.31400000000001  C 14.970651771143 5.31579841449722  15.2190204921081 5.33115454509453  15.466 5.36  C 14.8 2.28400000000001  11.484 0  7.7 0  C 3.46599999999999 0  0 2.858  0 6.491  C 0.0807434287965947 8.62177308819614  1.24171835202016 10.5645213850449  3.08 11.645  L 2.31100000000001 13.945  L 5 12.6  C 5.88465974824756 12.8187039623803  6.78936565015734 12.9463680174275  7.7 12.981  C 7.94200000000001 12.981  8.181 12.97  8.41800000000001 12.953  C 8.26268638686632 12.4337644063752  8.18253934535412 11.894960765957  8.18000000000001 11.353  C 8.30761607704416 7.97777591842132  11.0808780336465 5.3073884765072  14.4585138138911 5.3073884765072  C 14.5470388594396 5.3073884765072  14.6355540186522 5.30925940208216  14.724 5.313  Z M 10.584 3.247  L 10.584 3.245  C 10.6058657071407 3.24339936632907  10.6277826008067 3.24259824779008  10.6497068152034 3.24259824779008  C 11.1467630900511 3.24259824779008  11.5497068152034 3.64554197294237  11.5497068152034 4.14259824779009  C 11.5497068152034 4.1610786423234  11.5491376069319 4.17955465282041  11.548 4.19800000000001  C 11.5491792673021 4.2167789922015  11.5497693359656 4.23559034801602  11.5497693359656 4.25440633110152  C 11.5497693359656 4.75146260594923  11.1468256108133 5.15440633110151  10.6497693359656 5.15440633110151  C 10.6278242185164 5.15440633110151  10.6058864427618 5.15360368422481  10.584 5.152  C 10.0057388529045 5.19718539404133  9.49555667972328 4.77630720611367  9.43000000000001 4.2  C 9.49257070392797 3.62194590300012  10.0045417633367 3.19914831234453  10.584 3.247  Z M 5.26275581505922 5.15419060615504  C 5.2418180971444 5.15419060615504  5.22088675536622 5.15345995950358  5.2 5.152  C 4.61889308009904 5.20068631064427  4.10407727714743 4.77927217099686  4.03700000000001 4.2  C 4.10108613489194 3.61870719939228  4.6173454937248 3.19477969493366  5.2 3.245  C 5.22086609536487 3.24354293876287  5.24177664438457 3.24281374389143  5.26269355054262 3.24281374389143  C 5.75974982539033 3.24281374389143  6.16269355054263 3.64575746904373  6.16269355054263 4.14281374389144  C 6.16269355054263 4.16122215343489  6.16212876800402 4.17962622998095  6.161 4.19800000000001  C 6.16217025778104 4.21670734840995  6.16275581505921 4.23544669013395  6.16275581505921 4.25419060615504  C 6.16275581505921 4.75124688100276  5.75981208990693 5.15419060615504  5.26275581505922 5.15419060615504  Z M 21.752 11.259  L 21.753 11.262  C 21.753 8.211  18.673 5.724  15.213 5.724  C 11.549 5.724  8.666 8.212  8.666 11.262  C 8.666 14.312  11.548 16.8  15.21 16.8  C 15.9925272700455 16.7664286330097  16.7681393759125 16.6385029999641  17.52 16.419  L 19.631 17.567  L 19.052 15.659  C 20.5931313969877 14.6978188541115  21.5930428493557 13.0683335243265  21.752 11.259  Z M 14.054 9.54300000000001  C 13.9971089382123 10.0191235825975  13.5664626938205 10.3599774046627  13.09 10.306  C 12.6788188060012 10.2800042218794  12.3502156716787 9.95396496116669  12.321 9.54300000000001  C 12.3519009323979 9.13281037864481  12.6795809217547 8.80768706020623  13.09 8.78  C 13.5658156558835 8.72827702769402  13.9950633665698 9.06802391903601  14.054 9.54300000000001  Z M 18.288 9.54300000000001  C 18.2290633665698 10.017976080964  17.7998156558835 10.357722972306  17.324 10.306  C 16.9139939307342 10.2789372622254  16.5871359575245 9.95293381966465  16.559 9.54300000000001  C 16.5884032098857 9.13364493426751  16.9145693652744 8.80833150085367  17.324 8.78  C 17.7993339852597 8.72994289001332  18.2275526539776 9.06887530104207  18.288 9.54300000000001  Z " fill-rule="nonzero" fill="#cccccc" stroke="none" transform="matrix(1 0 0 1 1870 676 )" />
  </g>
</svg>